<mxfile host="app.diagrams.net" agent="Mozilla/5.0 (Windows NT 10.0; Win64; x64) AppleWebKit/537.36 (KHTML, like Gecko) Chrome/130.0.0.0 Safari/537.36 Edg/130.0.0.0" version="24.8.4">
  <diagram name="Page-1" id="gDUl7oNdfVCdYDzDmwHZ">
    <mxGraphModel dx="918" dy="460" grid="1" gridSize="10" guides="1" tooltips="1" connect="1" arrows="1" fold="1" page="1" pageScale="1" pageWidth="827" pageHeight="1169" math="0" shadow="0">
      <root>
        <mxCell id="0" />
        <mxCell id="1" parent="0" />
        <mxCell id="sdNqnacGHNfgHqZNZsmi-1" value="" style="whiteSpace=wrap;html=1;aspect=fixed;" vertex="1" parent="1">
          <mxGeometry x="40" y="30" width="210" height="210" as="geometry" />
        </mxCell>
        <mxCell id="sdNqnacGHNfgHqZNZsmi-2" value="" style="image;sketch=0;aspect=fixed;html=1;points=[];align=center;fontSize=12;image=img/lib/mscae/DNS_Private_Zones.svg;" vertex="1" parent="1">
          <mxGeometry x="200" y="40" width="50" height="50" as="geometry" />
        </mxCell>
        <mxCell id="sdNqnacGHNfgHqZNZsmi-16" style="edgeStyle=orthogonalEdgeStyle;rounded=0;orthogonalLoop=1;jettySize=auto;html=1;exitX=0;exitY=0.5;exitDx=0;exitDy=0;" edge="1" parent="1" source="sdNqnacGHNfgHqZNZsmi-3">
          <mxGeometry relative="1" as="geometry">
            <mxPoint x="360" y="130" as="targetPoint" />
          </mxGeometry>
        </mxCell>
        <mxCell id="sdNqnacGHNfgHqZNZsmi-3" value="" style="rounded=0;whiteSpace=wrap;html=1;" vertex="1" parent="1">
          <mxGeometry x="460" y="35" width="300" height="235" as="geometry" />
        </mxCell>
        <mxCell id="sdNqnacGHNfgHqZNZsmi-17" style="edgeStyle=orthogonalEdgeStyle;rounded=0;orthogonalLoop=1;jettySize=auto;html=1;exitX=0;exitY=0.5;exitDx=0;exitDy=0;" edge="1" parent="1" source="sdNqnacGHNfgHqZNZsmi-4">
          <mxGeometry relative="1" as="geometry">
            <mxPoint x="360" y="140" as="targetPoint" />
            <Array as="points">
              <mxPoint x="400" y="365" />
              <mxPoint x="400" y="140" />
            </Array>
          </mxGeometry>
        </mxCell>
        <mxCell id="sdNqnacGHNfgHqZNZsmi-4" value="" style="rounded=0;whiteSpace=wrap;html=1;" vertex="1" parent="1">
          <mxGeometry x="460" y="310" width="310" height="110" as="geometry" />
        </mxCell>
        <mxCell id="sdNqnacGHNfgHqZNZsmi-31" style="edgeStyle=orthogonalEdgeStyle;rounded=0;orthogonalLoop=1;jettySize=auto;html=1;" edge="1" parent="1" source="sdNqnacGHNfgHqZNZsmi-5">
          <mxGeometry relative="1" as="geometry">
            <mxPoint x="630" y="430" as="targetPoint" />
            <Array as="points">
              <mxPoint x="630" y="460" />
            </Array>
          </mxGeometry>
        </mxCell>
        <mxCell id="sdNqnacGHNfgHqZNZsmi-5" value="" style="whiteSpace=wrap;html=1;aspect=fixed;" vertex="1" parent="1">
          <mxGeometry x="160" y="360" width="200" height="200" as="geometry" />
        </mxCell>
        <mxCell id="sdNqnacGHNfgHqZNZsmi-6" value="" style="image;aspect=fixed;html=1;points=[];align=center;fontSize=12;image=img/lib/azure2/other/Exchange_On_Premises_Access.svg;" vertex="1" parent="1">
          <mxGeometry x="320" y="360" width="40" height="68" as="geometry" />
        </mxCell>
        <mxCell id="sdNqnacGHNfgHqZNZsmi-7" value="" style="image;aspect=fixed;html=1;points=[];align=center;fontSize=12;image=img/lib/azure2/networking/Virtual_Networks.svg;" vertex="1" parent="1">
          <mxGeometry x="694" y="40" width="67" height="40" as="geometry" />
        </mxCell>
        <mxCell id="sdNqnacGHNfgHqZNZsmi-8" value="" style="image;aspect=fixed;html=1;points=[];align=center;fontSize=12;image=img/lib/azure2/networking/Virtual_Networks.svg;" vertex="1" parent="1">
          <mxGeometry x="704" y="320" width="67" height="40" as="geometry" />
        </mxCell>
        <mxCell id="sdNqnacGHNfgHqZNZsmi-9" value="" style="image;aspect=fixed;html=1;points=[];align=center;fontSize=12;image=img/lib/azure2/compute/Virtual_Machine.svg;" vertex="1" parent="1">
          <mxGeometry x="500" y="103" width="69" height="64" as="geometry" />
        </mxCell>
        <mxCell id="sdNqnacGHNfgHqZNZsmi-10" value="" style="image;aspect=fixed;html=1;points=[];align=center;fontSize=12;image=img/lib/azure2/compute/Virtual_Machine.svg;" vertex="1" parent="1">
          <mxGeometry x="660" y="130" width="69" height="64" as="geometry" />
        </mxCell>
        <mxCell id="sdNqnacGHNfgHqZNZsmi-11" value="" style="image;aspect=fixed;html=1;points=[];align=center;fontSize=12;image=img/lib/azure2/other/VM_Application_Definition.svg;" vertex="1" parent="1">
          <mxGeometry x="500" y="334" width="68" height="62.8" as="geometry" />
        </mxCell>
        <mxCell id="sdNqnacGHNfgHqZNZsmi-12" value="" style="image;aspect=fixed;html=1;points=[];align=center;fontSize=12;image=img/lib/azure2/compute/Virtual_Machine.svg;" vertex="1" parent="1">
          <mxGeometry x="636" y="340" width="69" height="64" as="geometry" />
        </mxCell>
        <mxCell id="sdNqnacGHNfgHqZNZsmi-13" value="" style="image;aspect=fixed;perimeter=ellipsePerimeter;html=1;align=center;shadow=0;dashed=0;spacingTop=3;image=img/lib/active_directory/internet_cloud.svg;" vertex="1" parent="1">
          <mxGeometry x="50" y="630" width="250" height="157.51" as="geometry" />
        </mxCell>
        <mxCell id="sdNqnacGHNfgHqZNZsmi-14" value="Registered sites&lt;div&gt;1. food.panda.com&lt;/div&gt;&lt;div&gt;2. edu.panda.com&lt;/div&gt;" style="text;html=1;align=center;verticalAlign=middle;whiteSpace=wrap;rounded=0;" vertex="1" parent="1">
          <mxGeometry x="60" y="90" width="130" height="30" as="geometry" />
        </mxCell>
        <mxCell id="sdNqnacGHNfgHqZNZsmi-15" value="Associated vnet" style="text;html=1;align=center;verticalAlign=middle;whiteSpace=wrap;rounded=0;" vertex="1" parent="1">
          <mxGeometry x="60" y="167" width="100" height="30" as="geometry" />
        </mxCell>
        <mxCell id="sdNqnacGHNfgHqZNZsmi-20" style="edgeStyle=orthogonalEdgeStyle;rounded=0;orthogonalLoop=1;jettySize=auto;html=1;exitX=0;exitY=0.5;exitDx=0;exitDy=0;entryX=1;entryY=0.5;entryDx=0;entryDy=0;" edge="1" parent="1" source="sdNqnacGHNfgHqZNZsmi-18" target="sdNqnacGHNfgHqZNZsmi-1">
          <mxGeometry relative="1" as="geometry" />
        </mxCell>
        <mxCell id="sdNqnacGHNfgHqZNZsmi-25" style="edgeStyle=orthogonalEdgeStyle;rounded=0;orthogonalLoop=1;jettySize=auto;html=1;entryX=0.5;entryY=0;entryDx=0;entryDy=0;" edge="1" parent="1" source="sdNqnacGHNfgHqZNZsmi-18" target="sdNqnacGHNfgHqZNZsmi-23">
          <mxGeometry relative="1" as="geometry" />
        </mxCell>
        <mxCell id="sdNqnacGHNfgHqZNZsmi-18" value="" style="rounded=0;whiteSpace=wrap;html=1;" vertex="1" parent="1">
          <mxGeometry x="280" y="115" width="80" height="40" as="geometry" />
        </mxCell>
        <mxCell id="sdNqnacGHNfgHqZNZsmi-19" value="Web Search" style="text;html=1;align=center;verticalAlign=middle;whiteSpace=wrap;rounded=0;" vertex="1" parent="1">
          <mxGeometry x="290" y="120" width="60" height="30" as="geometry" />
        </mxCell>
        <mxCell id="sdNqnacGHNfgHqZNZsmi-21" value="First goes to private DNS" style="text;html=1;align=center;verticalAlign=middle;whiteSpace=wrap;rounded=0;" vertex="1" parent="1">
          <mxGeometry x="260" y="60" width="120" height="30" as="geometry" />
        </mxCell>
        <mxCell id="sdNqnacGHNfgHqZNZsmi-22" value="Those sites are internally accessable" style="text;html=1;align=center;verticalAlign=middle;whiteSpace=wrap;rounded=0;" vertex="1" parent="1">
          <mxGeometry x="60" y="200" width="120" height="30" as="geometry" />
        </mxCell>
        <mxCell id="sdNqnacGHNfgHqZNZsmi-26" style="edgeStyle=orthogonalEdgeStyle;rounded=0;orthogonalLoop=1;jettySize=auto;html=1;exitX=0.5;exitY=1;exitDx=0;exitDy=0;" edge="1" parent="1" source="sdNqnacGHNfgHqZNZsmi-23" target="sdNqnacGHNfgHqZNZsmi-13">
          <mxGeometry relative="1" as="geometry">
            <Array as="points">
              <mxPoint x="80" y="297" />
            </Array>
          </mxGeometry>
        </mxCell>
        <mxCell id="sdNqnacGHNfgHqZNZsmi-23" value="" style="rhombus;whiteSpace=wrap;html=1;" vertex="1" parent="1">
          <mxGeometry x="270" y="197" width="100" height="100" as="geometry" />
        </mxCell>
        <mxCell id="sdNqnacGHNfgHqZNZsmi-24" value="If Not found, in private DNS" style="text;html=1;align=center;verticalAlign=middle;whiteSpace=wrap;rounded=0;" vertex="1" parent="1">
          <mxGeometry x="290" y="230" width="60" height="30" as="geometry" />
        </mxCell>
        <mxCell id="sdNqnacGHNfgHqZNZsmi-27" value="Internet" style="text;html=1;align=center;verticalAlign=middle;whiteSpace=wrap;rounded=0;" vertex="1" parent="1">
          <mxGeometry x="90" y="710" width="140" height="30" as="geometry" />
        </mxCell>
        <mxCell id="sdNqnacGHNfgHqZNZsmi-28" value="Goes to Public DNS over Internet" style="text;html=1;align=center;verticalAlign=middle;whiteSpace=wrap;rounded=0;" vertex="1" parent="1">
          <mxGeometry x="80" y="304" width="170" height="30" as="geometry" />
        </mxCell>
        <mxCell id="sdNqnacGHNfgHqZNZsmi-29" value="" style="image;sketch=0;aspect=fixed;html=1;points=[];align=center;fontSize=12;image=img/lib/mscae/Virtual_Machine_2.svg;" vertex="1" parent="1">
          <mxGeometry x="190" y="420" width="50" height="46" as="geometry" />
        </mxCell>
        <mxCell id="sdNqnacGHNfgHqZNZsmi-30" value="" style="image;sketch=0;aspect=fixed;html=1;points=[];align=center;fontSize=12;image=img/lib/mscae/Virtual_Machine_2.svg;" vertex="1" parent="1">
          <mxGeometry x="290" y="490" width="50" height="46" as="geometry" />
        </mxCell>
        <mxCell id="sdNqnacGHNfgHqZNZsmi-32" value="If any of the Onprem server want to access a site from private domain. it need to connect to a VNEt which is associated for Private DNS.&lt;br&gt;it can be done by vpn gateway, site to site, p2s" style="text;html=1;align=center;verticalAlign=middle;whiteSpace=wrap;rounded=0;" vertex="1" parent="1">
          <mxGeometry x="389" y="490" width="340" height="30" as="geometry" />
        </mxCell>
      </root>
    </mxGraphModel>
  </diagram>
</mxfile>
